<?xml version="1.0" encoding="utf-8"?>
<?xml-stylesheet type="text/xsl" href="rss1.xsl"?>
<rss version="2.0" xmlns:atom="http://www.w3.org/2005/Atom" xmlns:content="http://purl.org/rss/1.0/modules/content/" xmlns:dc="http://purl.org/dc/elements/1.1/" xmlns:media="http://search.yahoo.com/mrss/">
<channel>
 <title>Getty</title>
 <link>http://www.gettyimg.com/</link>
 <atom:link href="http://www.gettyimg.com/" rel="self" type="application/rss+xml" />

 
                <item>
                <title><![CDATA[【Albums (lossless)】FLAC - Nazareth - Hair Of The Dog [Qobuz Hi-Res 24bit/96kHz]]]></title>
                <link><![CDATA[https://sharemania.us/threads/nazareth-hair-of-the-dog-qobuz-hi-res-24bit-96khz.242970/]]></link>
                <description><![CDATA[<article>
<blockquote class="messageText SelectQuoteContainer ugc baseHtml">
<img src="https://ia804504.us.archive.org/BookReader/BookReaderImages.php?zip=/17/items/lp_hair-of-the-dog_nazareth/lp_hair-of-the-dog_nazareth_jp2.zip&amp;file=lp_hair-of-the-dog_nazareth_jp2/lp_hair-of-the-dog_nazareth_0000.jp2&amp;id=lp_hair-of-the-dog_nazareth" class="bbCodeImage LbImage" alt="[​IMG]" data-url="https://ia804504.us.archive.org/BookReader/BookReaderImages.php?zip=/17/items/lp_hair-of-the-dog_nazareth/lp_hair-of-the-dog_nazareth_jp2.zip&amp;file=lp_hair-of-the-dog_nazareth_jp2/lp_hair-of-the-dog_nazareth_0000.jp2&amp;id=lp_hair-of-the-dog_nazareth" style=""> <br>
<span style="font-size: 18px"><b>ABOUT THE ALBUM</b></span><br>
<ul>
<li>1 disc(s) - 8 track(s)</li>
<li>Total length: 00:40:31</li>
<li>Main artists: <a href="https://www.qobuz.com/us-en/interpreter/nazareth/26749" target="_blank" class="externalLink" rel="nofollow">Nazareth</a></li>
<li>Composer: <a href="https://www.qobuz.com/us-en/composer/various-composers/573076" target="_blank" class="externalLink" rel="nofollow">Various Composers</a></li>
<li>Label: <a href="https://www.qobuz.com/us-en/label/a-m/download-streaming-albums/1211" target="_blank" class="externalLink" rel="nofollow">A&amp;M</a></li>
<li>Genre: <a href="https://www.qobuz.com/us-en/genre/pop-rock/download-streaming-albums" target="_blank" class="externalLink" rel="nofollow">Pop/Rock</a> <a href="https://www.qobuz.com/us-en/genre/rock/download-streaming-albums" target="_blank" class="externalLink" rel="nofollow">Rock</a></li>
</ul><b>Tracklist:</b><br>
1. Hair Of The Dog<br>
2. Miss Misery<br>
3. Love Hurts<br>
4. Changin' Times<br>
5. Beggars Day<br>
6. Rose In The Heather<br>
7. Whisky Drinkin' Woman<br>
8. Please Don't Judas Me<br>
<br>
<b><span style="color: #ff0000">DOWNLOAD:</span></b><br>
<div class="bbCodeBlock bbCodeVfcHH HiddenContent">
<div class="attribution type">Hidden Content:</div>
<blockquote>You must reply before you can see the hidden data contained here.</blockquote>
</div>
<div class="messageTextEndMarker">&nbsp;</div>
</blockquote>
</article>]]></description>
                <author><![CDATA[olobersykes99]]></author>
                </item>

                
                <item>
                <title><![CDATA[【Cinema Center】SERIES - Alice's Wonderland Bakery - Season 2 - 1080p Disney+ WEB-DL DDP5.1 H.264-LAZY]]></title>
                <link><![CDATA[https://sharemania.us/threads/alices-wonderland-bakery-season-2-1080p-disney-web-dl-ddp5-1-h-264-lazy.242969/]]></link>
                <description><![CDATA[<article>
<blockquote class="messageText SelectQuoteContainer ugc baseHtml">
Alice's Wonderland Bakery:<img src="https://artworks.thetvdb.com/banners/v4/series/402971/banners/6609ef8726308.jpg" class="bbCodeImage LbImage" alt="[​IMG]" data-url="https://artworks.thetvdb.com/banners/v4/series/402971/banners/6609ef8726308.jpg" style=""> <br>
<br>
<div class="bbCodeBlock bbCodeQuote">
<aside>
<blockquote class="quoteContainer"><div class="quote"><i><b>Synopsis:</b></i><br>
The series centers on Alice, the great-granddaughter of the original heroine and a budding young baker at the enchanted Wonderland Bakery, where treats bring a new generation of characters together.</div><div class="quoteExpand">Click to expand...</div></blockquote>
</aside>
</div>
<div class="ToggleTriggerAnchor bbCodeSpoilerContainer">
<button type="button" class="button bbCodeSpoilerButton ToggleTrigger Tooltip JsOnly" data-target="> .SpoilerTarget"><span>Spoiler: <span class="SpoilerTitle">MediaInfo</span></span></button>
<div class="SpoilerTarget bbCodeSpoilerText">General<br>
Unique ID : 47550523609243345107378043634561241205 (0x23C5E5D191E71D54AE7210DF3B0AD075)<br>
Complete name : Alices.Wonderland.Bakery.S02E01E02.Hattie.Wishes.Upon.a.Star.-.Seasons.Eatings.1080p.DSNP.WEB-DL.DDP5.1.H.264-LAZY.mkv<br>
Format : Matroska<br>
Format version : Version 4<br>
File size : 1.28 GiB<br>
Duration : 24 min 4 s<br>
Overall bit rate mode : Variable<br>
Overall bit rate : 7 591 kb/s<br>
Frame rate : 23.976 FPS<br>
Encoded date : 2024-04-22 12:54:07 UTC<br>
Writing application : mkvmerge v83.0 ('Circle Of Friends') 64-bit<br>
Writing library : libebml v1.4.5 + libmatroska v1.7.1<br>
<br>
Video<br>
ID : 1<br>
Format : AVC<br>
Format/Info : Advanced Video Codec<br>
Format profile : High@L4<br>
Format settings : CABAC / 4 Ref Frames<br>
Format settings, CABAC : Yes<br>
Format settings, Reference frames : 4 frames<br>
Codec ID : V_MPEG4/ISO/AVC<br>
Duration : 24 min 4 s<br>
Bit rate mode : Variable<br>
Bit rate : 7 332 kb/s<br>
Maximum bit rate : 12.7 Mb/s<br>
Width : 1 920 pixels<br>
Height : 1 080 pixels<br>
Display aspect ratio : 16:9<br>
Frame rate mode : Constant<br>
Frame rate : 23.976 (24000/1001) FPS<br>
Color space : YUV<br>
Chroma subsampling : 4:2:0<br>
Bit depth : 8 bits<br>
Scan type : Progressive<br>
Bits/(Pixel*Frame) : 0.147<br>
Time code of first frame : 00:00:00;00<br>
Stream size : 1.23 GiB (97%)<br>
Default : Yes<br>
Forced : No<br>
Color range : Limited<br>
Color primaries : BT.709<br>
Transfer characteristics : BT.709<br>
Matrix coefficients : BT.709<br>
<br>
Audio<br>
ID : 2<br>
Format : E-AC-3<br>
Format/Info : Enhanced AC-3<br>
Commercial name : Dolby Digital Plus<br>
Codec ID : A_EAC3<br>
Duration : 24 min 4 s<br>
Bit rate mode : Constant<br>
Bit rate : 256 kb/s<br>
Channel(s) : 6 channels<br>
Channel layout : L R C LFE Ls Rs<br>
Sampling rate : 48.0 kHz<br>
Frame rate : 31.250 FPS (1536 SPF)<br>
Compression mode : Lossy<br>
Stream size : 44.1 MiB (3%)<br>
Language : English<br>
Service kind : Complete Main<br>
Default : Yes<br>
Forced : No<br>
<br>
Text #1<br>
ID : 3<br>
Format : UTF-8<br>
Codec ID : S_TEXT/UTF8<br>
Codec ID/Info : UTF-8 Plain Text<br>
Duration : 23 min 34 s<br>
Bit rate : 93 b/s<br>
Frame rate : 0.329 FPS<br>
Count of elements : 466<br>
Stream size : 16.2 KiB (0%)<br>
Title : SDH<br>
Language : English<br>
Default : No<br>
Forced : No<br>
<br>
Text #2<br>
ID : 4<br>
Format : UTF-8<br>
Codec ID : S_TEXT/UTF8<br>
Codec ID/Info : UTF-8 Plain Text<br>
Duration : 17 min 36 s<br>
Bit rate : 14 b/s<br>
Frame rate : 0.045 FPS<br>
Count of elements : 47<br>
Stream size : 1.91 KiB (0%)<br>
Title : Latin American<br>
Language : Spanish<br>
Default : No<br>
Forced : No<br>
<br>
Text #3<br>
ID : 5<br>
Format : UTF-8<br>
Codec ID : S_TEXT/UTF8<br>
Codec ID/Info : UTF-8 Plain Text<br>
Duration : 23 min 58 s<br>
Bit rate : 87 b/s<br>
Frame rate : 0.306 FPS<br>
Count of elements : 440<br>
Stream size : 15.3 KiB (0%)<br>
Language : Japanese<br>
Default : No<br>
Forced : No<br>
<br>
Text #4<br>
ID : 6<br>
Format : UTF-8<br>
Codec ID : S_TEXT/UTF8<br>
Codec ID/Info : UTF-8 Plain Text<br>
Duration : 23 min 53 s<br>
Bit rate : 85 b/s<br>
Frame rate : 0.305 FPS<br>
Count of elements : 437<br>
Stream size : 14.9 KiB (0%)<br>
Language : Korean<br>
Default : No<br>
Forced : No<br>
<br>
Text #5<br>
ID : 7<br>
Format : UTF-8<br>
Codec ID : S_TEXT/UTF8<br>
Codec ID/Info : UTF-8 Plain Text<br>
Duration : 23 min 24 s<br>
Bit rate : 90 b/s<br>
Frame rate : 0.353 FPS<br>
Count of elements : 496<br>
Stream size : 15.5 KiB (0%)<br>
Title : Brazilian<br>
Language : Portuguese<br>
Default : No<br>
Forced : No<br>
<br>
Text #6<br>
ID : 8<br>
Format : UTF-8<br>
Codec ID : S_TEXT/UTF8<br>
Codec ID/Info : UTF-8 Plain Text<br>
Duration : 23 min 59 s<br>
Bit rate : 72 b/s<br>
Frame rate : 0.303 FPS<br>
Count of elements : 436<br>
Stream size : 12.8 KiB (0%)<br>
Title : Traditional, Hong Kong<br>
Language : Chinese<br>
Default : No<br>
Forced : No<br>
<br>
Text #7<br>
ID : 9<br>
Format : UTF-8<br>
Codec ID : S_TEXT/UTF8<br>
Codec ID/Info : UTF-8 Plain Text<br>
Duration : 23 min 24 s<br>
Bit rate : 72 b/s<br>
Frame rate : 0.313 FPS<br>
Count of elements : 440<br>
Stream size : 12.5 KiB (0%)<br>
Title : Simplified<br>
Language : Chinese<br>
Default : No<br>
Forced : No<br>
<br>
Text #8<br>
ID : 10<br>
Format : UTF-8<br>
Codec ID : S_TEXT/UTF8<br>
Codec ID/Info : UTF-8 Plain Text<br>
Duration : 23 min 59 s<br>
Bit rate : 69 b/s<br>
Frame rate : 0.302 FPS<br>
Count of elements : 435<br>
Stream size : 12.2 KiB (0%)<br>
Title : Traditional<br>
Language : Chinese<br>
Default : No<br>
Forced : No<br>
<br>
Menu<br>
00:00:01.043 : en:Intro<br>
00:01:00.894 : en:Scene 1 / en:intro_end<br>
00:12:17.696 : en:Scene 2<br>
00:23:33.914 : en:Scene 3<br>
00:23:33.956 : en:Credits</div>
</div><br>
Screenshots:<br>
<img src="https://ptpimg.me/c33t6d.jpg" class="bbCodeImage LbImage" alt="[​IMG]" data-url="https://ptpimg.me/c33t6d.jpg" style=""> <br>
<br>
<div class="bbCodeBlock bbCodeVfcHH HiddenContent">
<div class="attribution type">Hidden Content:</div>
<blockquote>You must either reply or click 'Like' to see the hidden information contained here.</blockquote>
</div>
<div class="messageTextEndMarker">&nbsp;</div>
</blockquote>
</article>]]></description>
                <author><![CDATA[LazyRips]]></author>
                </item>

                
                <item>
                <title><![CDATA[【Requests】[REQ AUD] - Until the Ribbon Breaks - Strange Times, Carousel (Flac)]]></title>
                <link><![CDATA[https://sharemania.us/threads/until-the-ribbon-breaks-strange-times-carousel-flac.242968/]]></link>
                <description><![CDATA[<article>
<blockquote class="messageText SelectQuoteContainer ugc baseHtml">
Hello! Would like to kindly request "Until the Ribbon Breaks - Strange Times 2024, with remixes if possible and their second release of 2024, "Until the Ribbon Breaks - Carousel 2024". If available in lossless flac, would be great! Thank you in advance.
<div class="messageTextEndMarker">&nbsp;</div>
</blockquote>
</article>]]></description>
                <author><![CDATA[kospan]]></author>
                </item>

                
                <item>
                <title><![CDATA[【Apple Music】WEB-RiP - Danna Paola - ATARI 'Apple.Music.Web.1080-fstambuk']]></title>
                <link><![CDATA[https://sharemania.us/threads/danna-paola-atari-apple-music-web-1080-fstambuk.242967/]]></link>
                <description><![CDATA[<article>
<blockquote class="messageText SelectQuoteContainer ugc baseHtml">
<div style="text-align: center"><img src="https://i.ibb.co/bssHBhX/Danna-Paola-ATARI-Apple-Music-Web-1080-fstambuk-VTM.gif" class="bbCodeImage LbImage" alt="[​IMG]" data-url="https://i.ibb.co/bssHBhX/Danna-Paola-ATARI-Apple-Music-Web-1080-fstambuk-VTM.gif" style=""><br>
​</div>
<div class="ToggleTriggerAnchor bbCodeSpoilerContainer">
<button type="button" class="button bbCodeSpoilerButton ToggleTrigger Tooltip JsOnly" data-target="> .SpoilerTarget"><span>Spoiler: <span class="SpoilerTitle">Apple Music</span></span></button>
<div class="SpoilerTarget bbCodeSpoilerText">
<div class="bbCodeBlock bbCodeCode">
<div class="type">Code:</div>
<pre>General
Complete name                            : Danna Paola - ATARI 'Apple.Music.Web.1080-fstambuk'.m4v
Format                                   : MPEG-4
Format profile                           : Base Media
Codec ID                                 : isom (isom/iso2/mp41)
File size                                : 316 MiB
Duration                                 : 3 min 38 s
Overall bit rate                         : 12.1 Mb/s
Frame rate                               : 23.976 FPS
Movie name                               : ATARI
Performer                                : Danna Paola
Genre                                    : Latina
ContentType                              : Music Video
Recorded date                            : 2024-04-24 07:00:00 UTC
Copyright                                : ℗ Veo Sonora; © 2024 Universal Music Group México, S.A. de C.V.
Cover                                    : Yes
Rating                                   : Explicit
GenreID                                  : 1612
AlbumTitleID                             : 23148284
AppleStoreCatalogID                      : 1742633039

Video
ID                                       : 1
Format                                   : HEVC
Format/Info                              : High Efficiency Video Coding
Format profile                           : Main 10@L5@High
Codec ID                                 : hvc1
Codec ID/Info                            : High Efficiency Video Coding
Duration                                 : 3 min 38 s
Bit rate                                 : 11.8 Mb/s
Width                                    : 3 840 pixels
Height                                   : 2 160 pixels
Display aspect ratio                     : 16:9
Frame rate mode                          : Constant
Frame rate                               : 23.976 (24000/1001) FPS
Color space                              : YUV
Chroma subsampling                       : 4:2:0
Bit depth                                : 10 bits
Scan type                                : Progressive
Bits/(Pixel*Frame)                       : 0.059
Stream size                              : 309 MiB (98%)
Title                                    : Core Media Video
Color range                              : Limited
Color primaries                          : BT.709
Transfer characteristics                 : BT.709
Matrix coefficients                      : BT.709
Codec configuration box                  : hvcC

Audio
ID                                       : 2
Format                                   : AAC LC
Format/Info                              : Advanced Audio Codec Low Complexity
Codec ID                                 : 2 / 40 / mp4a-40-2
Duration                                 : 3 min 38 s
Bit rate mode                            : Constant
Bit rate                                 : 256 kb/s
Channel(s)                               : 2 channels
Channel layout                           : L R
Sampling rate                            : 48.0 kHz
Frame rate                               : 46.875 FPS (1024 SPF)
Compression mode                         : Lossy
Stream size                              : 6.68 MiB (2%)
Title                                    : Core Media Audio
Default                                  : Yes
Alternate group                          : 1

</pre>
</div><div style="text-align: center">​</div></div>
</div><div style="text-align: center"><br>
<div class="bbCodeBlock bbCodeVfcHH HiddenContent">
<div class="attribution type">Hidden Content:</div>
<blockquote>You must reply before you can see the hidden data contained here.</blockquote>
</div></div>
<div class="messageTextEndMarker">&nbsp;</div>
</blockquote>
</article>]]></description>
                <author><![CDATA[fstambuk]]></author>
                </item>

                </channel></rss>